<?xml version="1.0" encoding="iso-8859-1"?>
<!-- Uploaded to: SVG Repo, www.svgrepo.com, Generator: SVG Repo Mixer Tools -->
<svg fill="#000000" height="800px" width="800px" version="1.1" id="Layer_1" xmlns="http://www.w3.org/2000/svg" xmlns:xlink="http://www.w3.org/1999/xlink" 
	 viewBox="0 0 512 512" xml:space="preserve">
<g>
	<g>
		<g>
			<path d="M490.981,0H21.019C9.429,0,0,9.429,0,21.019v26.524v235.138v32.682v41.269c0,11.59,9.429,21.019,21.019,21.019h47.327
				c4.466,0,8.084-3.618,8.084-8.084c0-4.466-3.619-8.084-8.084-8.084H21.019c-2.674,0-4.851-2.176-4.851-4.851v-33.185h36.119
				h443.544v33.185c0,2.674-2.176,4.851-4.851,4.851H275.73h-39.459H94.752c-4.466,0-8.084,3.618-8.084,8.084
				c0,4.466,3.618,8.084,8.084,8.084h133.434v57.63c-29.499,1.369-56.468,4.911-76.601,10.112
				c-26.569,6.862-39.484,15.998-39.484,27.927c0,12.879,15.074,22.536,46.086,29.521C184.405,508.747,219.142,512,256,512
				s71.595-3.253,97.813-9.159c31.012-6.985,46.086-16.642,46.086-29.521c0-11.929-12.915-21.065-39.484-27.926
				c-20.133-5.2-47.102-8.743-76.601-10.112v-57.63h207.167c11.59,0,21.019-9.429,21.019-21.019v-41.269V47.543V21.019
				C512,9.429,502.571,0,490.981,0z M244.356,443.046v-65.394h23.29v65.394v9.166h-23.29V443.046z M353.238,460.268
				c24.814,5.965,29.667,11.902,30.406,13.077c-1.226,2.24-9.843,8.812-36.769,14.46c-24.677,5.176-56.951,8.027-90.875,8.027
				s-66.198-2.851-90.875-8.027c-26.926-5.648-35.545-12.22-36.769-14.46c0.739-1.175,5.592-7.112,30.406-13.077
				c18.536-4.457,42.937-7.54,69.424-8.805v8.834c0,4.466,3.618,8.084,8.084,8.084h39.459c4.466,0,8.084-3.618,8.084-8.084v-8.834
				C310.301,452.728,334.703,455.81,353.238,460.268z M44.203,307.28H16.168v-16.513h28.035V307.28z M495.831,307.28H60.372v-16.513
				h435.459V307.28z M495.832,39.458h-37.875c-4.466,0-8.084,3.619-8.084,8.084s3.618,8.084,8.084,8.084h37.875v218.97H52.288
				H16.168V55.627h414.841c4.466,0,8.084-3.619,8.084-8.084c0-4.466-3.618-8.084-8.084-8.084H16.168v-18.44
				c0-2.674,2.176-4.851,4.851-4.851h469.962c2.674,0,4.851,2.176,4.851,4.851V39.458z"/>
			<path d="M242.018,350.486h27.964c4.466,0,8.084-3.618,8.084-8.084c0-4.466-3.619-8.084-8.084-8.084h-27.964
				c-4.466,0-8.084,3.618-8.084,8.084C233.933,346.868,237.553,350.486,242.018,350.486z"/>
			<path d="M39.195,85.223v41.68c0,4.466,3.618,8.084,8.084,8.084h417.427c4.466,0,8.084-3.619,8.084-8.084v-41.68
				c0-4.466-3.618-8.084-8.084-8.084H47.28C42.815,77.138,39.195,80.758,39.195,85.223z M55.364,93.307h401.258v25.512H55.364
				V93.307z"/>
			<path d="M463.008,156.827H272.2c-4.466,0-8.084,3.619-8.084,8.084s3.618,8.084,8.084,8.084h190.808
				c4.466,0,8.084-3.619,8.084-8.084S467.472,156.827,463.008,156.827z"/>
			<path d="M463.008,194.787H272.2c-4.466,0-8.084,3.619-8.084,8.084c0,4.466,3.618,8.084,8.084,8.084h190.808
				c4.466,0,8.084-3.618,8.084-8.084C471.092,198.406,467.472,194.787,463.008,194.787z"/>
			<path d="M463.008,232.745H272.2c-4.466,0-8.084,3.619-8.084,8.084s3.618,8.084,8.084,8.084h190.808
				c4.466,0,8.084-3.619,8.084-8.084S467.472,232.745,463.008,232.745z"/>
			<path d="M236.27,156.827H47.28c-4.466,0-8.084,3.619-8.084,8.084v75.918c0,4.466,3.618,8.084,8.084,8.084h188.99
				c4.466,0,8.084-3.619,8.084-8.084v-75.918C244.354,160.447,240.736,156.827,236.27,156.827z M55.364,232.745v-59.75h172.822
				v59.75H55.364z"/>
		</g>
	</g>
</g>
</svg>