<?xml version="1.0" encoding="iso-8859-1"?>
<!-- Uploaded to: SVG Repo, www.svgrepo.com, Generator: SVG Repo Mixer Tools -->
<svg fill="#000000" height="800px" width="800px" version="1.1" id="Layer_1" xmlns="http://www.w3.org/2000/svg" xmlns:xlink="http://www.w3.org/1999/xlink" 
	 viewBox="0 0 512 512" xml:space="preserve">
<g>
	<g>
		<g>
			<path d="M481.714,0H30.286C13.586,0,0,13.586,0,30.286V361.85c0,16.7,13.586,30.286,30.286,30.286h169.125v71.359h-36.468
				c-13.373,0-24.253,10.879-24.253,24.253c0,13.373,10.879,24.253,24.253,24.253H348.34c13.372,0,24.253-10.879,24.253-24.253
				c0-13.373-10.88-24.253-24.253-24.253h-35.751v-71.359h169.125c16.699,0,30.286-13.586,30.286-30.286V30.286
				C512,13.586,498.414,0,481.714,0z M348.34,479.663c4.458,0,8.084,3.626,8.084,8.084c0,4.458-3.626,8.084-8.084,8.084H162.942
				c-4.458,0-8.084-3.626-8.084-8.084c0-4.458,3.626-8.084,8.084-8.084h101.174c4.466,0,8.084-3.62,8.084-8.084
				c0-4.465-3.618-8.084-8.084-8.084h-48.538v-71.359h80.842v71.359h-6.975c-4.466,0-8.084,3.62-8.084,8.084
				c0,4.465,3.619,8.084,8.084,8.084H348.34z M495.832,361.85c0,7.785-6.333,14.117-14.117,14.117H304.505h-97.011H30.286
				c-7.785,0-14.117-6.333-14.117-14.117V30.286c0-7.785,6.333-14.117,14.117-14.117h451.43c7.784,0,14.116,6.333,14.116,14.117
				V361.85z"/>
			<path d="M467.823,35.685h-50.555c-4.466,0-8.084,3.62-8.084,8.084c0,4.465,3.618,8.084,8.084,8.084h42.471v251.883H86.802h-34.54
				V51.853h339.676c4.465,0,8.084-3.62,8.084-8.084c0-4.465-3.62-8.084-8.084-8.084H44.178c-4.465,0-8.084,3.62-8.084,8.084v268.052
				v36.546c0,4.465,3.62,8.084,8.084,8.084h42.624h381.02c4.465,0,8.084-3.62,8.084-8.084v-36.546V43.769
				C475.907,39.304,472.287,35.685,467.823,35.685z M78.718,340.283H52.262v-20.378h26.456V340.283z M94.886,340.283v-20.378
				h364.851v20.378H94.886z"/>
			<path d="M445.426,149.419V74.325c0-4.465-3.618-8.084-8.084-8.084H74.657c-4.465,0-8.084,3.62-8.084,8.084v75.094
				c0,4.465,3.62,8.084,8.084,8.084h362.686C441.807,157.503,445.426,153.883,445.426,149.419z M429.259,141.335h-0.001H82.741
				V82.409h346.517V141.335z"/>
			<path d="M74.657,170.438c-4.465,0-8.084,3.62-8.084,8.084v103.119c0,4.465,3.62,8.084,8.084,8.084h148.679
				c4.465,0,8.084-3.62,8.084-8.084V178.522c0-4.465-3.62-8.084-8.084-8.084H74.657z M215.252,273.556h-0.001H82.741v-86.951
				h132.511V273.556z"/>
			<path d="M433.681,170.438H253.775c-4.465,0-8.084,3.62-8.084,8.084c0,4.465,3.62,8.084,8.084,8.084H433.68
				c4.466,0,8.084-3.62,8.084-8.084C441.764,174.057,438.146,170.438,433.681,170.438z"/>
			<path d="M433.681,204.81H253.775c-4.465,0-8.084,3.62-8.084,8.084s3.62,8.084,8.084,8.084H433.68c4.466,0,8.084-3.62,8.084-8.084
				S438.146,204.81,433.681,204.81z"/>
			<path d="M433.681,239.183H253.775c-4.465,0-8.084,3.62-8.084,8.084c0,4.465,3.62,8.084,8.084,8.084H433.68
				c4.466,0,8.084-3.62,8.084-8.084C441.764,242.802,438.146,239.183,433.681,239.183z"/>
			<path d="M253.775,273.556c-4.465,0-8.084,3.62-8.084,8.084c0,4.465,3.62,8.084,8.084,8.084H433.68
				c4.466,0,8.084-3.62,8.084-8.084c0-4.465-3.619-8.084-8.083-8.084H253.775z"/>
		</g>
	</g>
</g>
</svg>